<?xml version="1.0" encoding="utf-8"?>
<!-- Generator: Adobe Illustrator 24.0.0, SVG Export Plug-In . SVG Version: 6.00 Build 0)  -->
<svg version="1.1" id="Layer_1" xmlns="http://www.w3.org/2000/svg" xmlns:xlink="http://www.w3.org/1999/xlink" x="0px" y="0px"
	 viewBox="0 0 864 864" style="enable-background:new 0 0 864 864;" xml:space="preserve">
<style type="text/css">
	.st0{fill:#FFFFFF;}
</style>
<g>
	<path d="M399,150.5c1.8,0.5,3.6,1.1,5.4,1.3c12,1.8,23.6,5.2,34.8,9.6c15.4,6.1,30.3,13.3,44.1,22.5c26.6,17.8,47.2,40.9,62.1,69.1
		c4.5,8.5,8.3,17.3,11.6,26.3c1.1,3.1,2.6,5.8,4.9,8.2c6.5,6.6,10.6,14.6,13.2,23.5c2.1,7.2,3.8,14.5,5.8,21.8
		c3.4,12.4,7.4,24.5,13,36.1c2.4,5,5.1,9.8,7.6,14.7c0.1,0.1,0.2,0.2,0.4,0.4c0.5-0.3,1.1-0.5,1.6-0.8c8.8-5.1,17.5-10.2,26.3-15.2
		c1.5-0.9,3.1-1.7,4.8-2.3c2.3-0.8,4.7-0.9,7,0c1.1,0.5,2.2,1.2,3.1,2c0.8,0.7,1.5,1,2.6,0.9c1.7-0.1,3.4-0.2,5.2-0.1
		c1.8,0.1,3.3,0.9,4.5,2.2c1.1,1.2,2.2,2.4,3.2,3.7c1.2,1.5,2.4,3.1,3.6,4.6c0.7,0.9,1.4,1.8,2.3,2.6c2.8,2.3,4.6,5.2,5.8,8.6
		c0.4,1,0.9,2,1.6,2.9c1.9,2.4,2.1,5.1,1.3,7.9c-0.4,1.5-1.3,2.8-1.9,4.1c-0.4,0.9-0.9,1.7-1.2,2.6c-2.7,8.9-5.2,17.9-8.2,26.8
		c-7.1,21.5-16.8,41.7-29.4,60.5c-7,10.4-14.8,20.1-23.4,29.1c-1.3,1.3-2.5,2.8-3.7,4.2c-2.3,2.8-2.7,5.9-1.2,9.3
		c1,2.2,1.9,4.4,4,5.9c1.3,0.9,2.8,1.8,4.2,2.4c5.2,2.2,10.1,4.9,14.5,8.5c6.8,5.7,11.6,12.8,14.7,21.1c0.2,0.7,0.5,1.3,0.8,2
		c0.5,0,0.9,0.1,1.3,0.1c3.2,0,6.3,0.1,9.5,0c3,0,5.4,1.2,7.1,3.6c1.6,2.2,2.6,4.7,2.6,7.5c0,1.7,0.4,3.3,1.7,4.6
		c1.1,1.1,1.3,2.7,1.4,4.3c0.2,2.3-0.1,4.6-0.7,6.8c-3.5,13.3-9.1,25.7-16.7,37.2c-6,9.2-13,17.6-20.8,25.3
		c-6.7,6.5-13.9,12.2-21.7,17.2c-0.8,0.5-1.7,1.1-2.5,1.7c-4.1,3.2-8.8,4.9-13.8,5.7c-1.3,0.2-2.6,0.5-4,0.7c-3.5,0.4-6.5-0.8-9.2-3
		c-0.9-0.7-1.5-1.8-1.9-2.9c-0.9-2.6-2.7-3.9-5.3-4.1c-4-0.3-8-0.7-12-1c-5.1-0.4-10.2-0.9-15.3-1.3c-5.3-0.4-10.5-0.5-15.8-0.3
		c-3.2,0.2-6.4,0.1-9.6,0.4c-6,0.5-11.9,1-17.9,1.8c-9.1,1.2-18,3-26.9,5.3c-10.5,2.7-20.7,6.2-30.9,10c-5.2,1.9-10.5,3.5-15.9,5.1
		c-1.9,0.6-3.3,1.4-4.3,3.2c-3.9,6.7-11.1,8.8-17.2,7.9c-7.4-1.1-14.4-3.7-20.8-7.6c-11.7-7.2-22.7-15.3-32.7-24.6
		c-11.2-10.4-20.6-22.2-28-35.6c-2.8-5.1-4-10.6-3.5-16.3c0.3-3,0.7-5.9,1.2-8.8c0.5-2.5,1.8-4.6,3.5-6.5c2.1-2.3,4.6-4.2,7.3-5.8
		c2.7-1.5,5.5-1.4,8.4-0.8c1.3,0.3,2.7,0.7,4.1,1c0.2-0.5,0.4-1,0.5-1.4c1.9-6.9,4.8-13.4,7.9-19.7c4-8.2,8.1-16.3,12.1-24.5
		c0.4-0.8,0.7-1.6,1.1-2.7c-0.8,0-1.3,0-1.8,0c-7.2,0-14.4,0-21.6,0c-1.1,0-2.2-0.1-3.2-0.5c-2.7-0.9-4.2-3.4-3.9-6.4
		c0.3-3.2,0.7-6.4,1.2-9.6c1.8-12.2,4.3-24.3,7.4-36.3c1.7-6.4,3.5-12.8,5.3-19.3c0.2-0.7,0.3-1.4,0.6-2.4c-0.9,0.5-1.4,0.8-2,1.1
		c-12.3,7-24.4,14.4-36.3,22.2c-20.7,13.4-40.8,27.9-60.4,42.8c-1.6,1.2-3.2,2.4-4.8,3.6c-1.5,1.1-3.2,1.7-5.1,1.4
		c-2-0.3-3.5-1.4-4.5-3.3c-1-2-2.1-4-3.1-6c-8-15.8-15.3-31.9-20.9-48.7c-3.4-10-6.1-20.2-8.2-30.5c-1.5-7-2.7-14.1-4.2-21.1
		c-1.2-5.8,0.7-10.3,5.3-13.7c5-3.7,10.1-7.3,15.3-10.7c11.9-8,24.4-15.1,37.3-21.4c13-6.4,26.2-12,39.9-16.6
		c13.9-4.6,27.8-9,41.7-13.5c2.4-0.8,4.7-1.5,7.1-2.3c0.3-0.1,0.6-0.2,0.9-0.4c0-7.5,0-14.9,0-22.5c-0.6,0.2-1.2,0.3-1.7,0.5
		c-7.6,2.9-15.4,5.4-23.3,7.5c-8.9,2.4-17.9,4.1-27.1,5.3c-9.8,1.2-19.6,1.7-29.4,1.5c-19.3-0.5-38.1-3.6-56.4-9.8
		c-5.3-1.8-10.5-4-15.7-6c-2.2-0.9-4.1-2.1-5-4.4c-0.1-0.2-0.4-0.3-0.6-0.4c0-1.1,0-2.1,0-3.2c0.6,0.1,0.7-0.4,0.9-0.8
		c0.7-0.9,1.3-1.9,2.1-2.7c1.8-1.6,3.7-3.2,5.7-4.6c12.6-9.3,25.9-17.4,39.9-24.2c8.9-4.3,18-8,27.4-11.1
		c10.1-3.3,20.3-5.9,30.8-7.7c9.3-1.6,18.6-2.6,28-3c5-0.2,10-0.1,15-0.1c6,0,12.1,0.3,18.1,1.3c8.2,1.3,16.4,2.9,24.6,4.4
		c1.9,0.4,3.4,0,4.9-1.2c8.3-6.7,17.3-12.2,27-16.6c12.4-5.7,25.3-9.4,38.8-11.2c3.9-0.5,7.8-0.9,11.7-1.4c0.3,0,0.6-0.1,1.1-0.2
		c-0.7-0.6-1.2-1-1.8-1.4c-10-7.4-19.4-15.6-28.1-24.6c-7.9-8.3-15.1-17.1-21.4-26.7c-9.2-13.7-16.4-28.4-22-44
		c-0.4-1.1-0.8-2.2-1-3.3c-0.7-3,0.4-5.2,3.1-6.7c0.4-0.2,0.9-0.5,1.3-0.8C396.3,150.5,397.6,150.5,399,150.5z M384.8,475.7
		c0,0.7,0,1.1,0,1.5c0.1,1.2,0.2,2.4,0.3,3.6c0.8,9.1,1.2,18.2,1,27.3c-0.2,5.6-0.5,11.1-1.2,16.6c-1.1,9-3.1,17.7-6,26.3
		c-2.8,8.1-6.2,15.9-9.8,23.6c-4.7,10.2-9.5,20.3-13.1,31c-1,2.8-1.9,5.5-2.8,8.3c-0.7,2.3-0.1,4.3,1.8,5.8c0.5,0.4,1.1,0.8,1.7,1.1
		c8.2,5.1,15.9,10.9,23,17.5c1.5,1.4,2.9,3,4.4,4.5c-2.2-0.4-4.3-1-6.1-2.2c-5.5-3.9-11.1-7.7-16.6-11.6
		c-6.6-4.6-13.6-8.4-20.8-11.9c-0.9-0.4-1.9-0.6-2.9-0.5c-1.1,0.1-1.4,0.3-1.6,1.4c-0.3,1.5,0,3,0.8,4.3c3,4.7,6,9.5,9,14.2
		c0.3,0.4,0.5,0.9,0.9,1.4c-1,0.6-1.9,1.2-2.8,1.8c-1.2-1.6-2.2-3-3.3-4.4c-1.1-1.4-2.1-2.9-3.2-4.3c-1.1-1.4-2.1-2.9-3.2-4.3
		c-1-1.4-2-2.8-3.3-4.3c-0.9,2-1,3.9-0.4,5.7c0.5,1.5,1.2,3,2,4.4c2.1,3.4,4.3,6.7,6.5,10c0.4,0.5,0.7,1.1,1.1,1.7
		c-1,0.6-1.8,1.1-2.7,1.6c-2.1-2.7-4.2-5.2-6.2-7.7c0.3,1.8,1.1,3.4,1.9,4.9c6.2,11.3,14.1,21.2,23.4,30.1
		c10.1,9.6,21.4,17.7,33.5,24.8c4.4,2.6,9.2,4.5,14.3,5.4c2.3,0.4,4.6,0.6,6.9,0.1c2.6-0.6,4.2-2.3,4.3-5c0-1.4,0-2.9-0.4-4.3
		c-1-3.5-2.3-7-3.4-10.5c-0.2-0.6-0.4-1.2-0.6-1.8c1.7-1.7,2.6-1.6,3.7,0.2c1.7,2.8,3.3,5.6,4.2,8.8c0.7,2.4,2,3.2,4.5,2.9
		c0.4-0.1,0.9-0.1,1.3-0.2c3.5-1.2,7.1-2.3,10.6-3.6c6.4-2.3,12.7-4.7,19.1-6.8c10.7-3.6,21.6-6.3,32.7-8.4
		c7.8-1.5,15.7-2.7,23.6-3.3c6.1-0.4,12.1-0.8,18.2-1c6.6-0.2,13.2,0,19.8,0.5c4.5,0.3,9.1,0.8,13.6,1.3c3.9,0.5,7.9,1.1,11.8,1.7
		c2.6,0.4,3.5-0.2,4.3-2.7c0.1-0.3,0.2-0.6,0.2-0.8c1-3.8,2-7.7,3-11.5c0.1-0.3,0.3-0.7,0.4-1c0.4,0.1,0.7,0.2,1,0.3
		c1.7,0.6,1.9,1.1,1.6,2.8c-0.2,1-0.4,2-0.7,2.9c-1.2,4.8-1.6,9.7-0.7,14.7c0.1,0.5,0.2,0.9,0.3,1.4c0.3,1.2,1.2,2,2.5,2.1
		c0.7,0.1,1.4,0.1,2.2,0c3.1-0.2,6.2-0.4,9-2.1c14.1-8.2,26.3-18.7,36.5-31.5c8.7-10.9,15.4-23,20.7-35.9c1.6-3.9,3-7.9,3.6-12.1
		c0.1-0.6,0.3-1.1,0.1-1.9c-3.9,6-7.5,11.8-11.3,17.6c-1.1-0.7-2-1.3-3-1.9c0.7-1.3,1.4-2.5,2.1-3.7c1.8-3.1,3.7-6.2,5.5-9.3
		c1.9-3.3,3.2-6.7,3.4-10.6c0-1.1,0-2.2-0.3-3.6c-0.6,0.9-1.1,1.6-1.5,2.3c-0.9,1.7-1.6,3.5-2.5,5.2c-1.4,2.6-2.7,5.3-4.2,7.9
		c-1,1.8-2.6,2.9-4.6,3.8c-0.1-1.6,0.2-2.8,0.8-4.1c1.5-3.3,2.9-6.6,4.4-9.9c0.8-1.8,0.9-3.7,0.4-5.6c-1.7,0-3.1,0.4-4.3,1.3
		c-3.7,2.6-7.3,5.1-10.9,7.7c-5.8,4.3-11.3,9.1-16.2,14.4c-3.8,4.1-7.5,8.4-11.2,12.6c-0.7,0.8-1.5,1.6-2.3,2.4
		c-1.2-2-0.9-3.7,0.3-5.5c3.6-5,7.6-9.8,11.9-14.2c5.3-5.5,11.1-10.4,17.2-15c1.2-0.9,2.2-2,3.3-3c0.7-0.7,1.1-1.6,0.9-2.6
		c-0.3-1.6-0.6-3.3-1.2-4.9c-4.3-11.9-12.3-20.4-23.8-25.6c-3.6-1.6-7.3-2.6-11.2-2.3c-7.1,0.6-14.2,1.6-21.3,2.4
		c-1.2,0.1-2.5,0.3-3.7,0.4c1.8-1.7,3.8-3,6-4c4.4-2.1,9.2-3,14-3.2c1.6-0.1,3.2-0.1,5-0.2c-8.2-21.2-12.9-43-14.8-65.4
		c2.4-1,3-0.7,3.5,1.6c0,0.1,0,0.2,0.1,0.3c2.4,12,4.9,24,7.3,36.1c0.2,1.1,0.4,2.3,0.7,3.4c0.3,1.1,0.9,2,2.3,2.2
		c0.3-0.4,0.6-0.7,0.9-1.1c3.8-4.7,7.5-9.4,11.3-14c12-14.4,21.9-30,30.3-46.7c6.5-12.9,11.9-26.3,16.2-40.1c2-6.5,3.9-13,5.8-19.6
		c0.6-2.2,1-4.5,0.6-6.8c-0.4-2-1-3.9-1.5-5.8c-0.3-0.1-0.6-0.1-0.9-0.2c-1.8-0.2-2.7-1.2-3.1-2.9c-0.1-0.5-0.2-0.9-0.2-1.4
		c-0.1-0.8-0.3-1.6-0.4-2.3c-2-0.4-3.8-0.7-5.6-1c-0.3-2-0.5-3.8-0.8-5.9c-1.2,0.2-2.3,0.4-3.4,0.6c-1.3,0.2-2.5,0.6-3.8,0.7
		c-3.5,0.4-5-1.5-6-3.7c-0.2-0.4-0.4-0.8-0.6-1.3c-0.3,0.2-0.5,0.3-0.7,0.4c-11.4,6.8-22.8,13.6-34.2,20.5c-2,1.2-3,3-2.9,5.4
		c0.2,3.2-0.2,6.3-0.7,9.4c-1.1,6.3-3.4,12.3-6.2,18c-5.8,11.6-13.1,22.2-21.2,32.3c-6.2,7.7-12.9,15.1-19.8,22.2
		c-1.1,1.2-2.3,2.1-3.8,2.9c-0.4-0.5-0.8-1-1.2-1.5c11.9-14.8,23.7-29.6,35.6-44.4c-0.3-0.1-0.4-0.2-0.5-0.2
		c-0.7-0.2-1.4-0.4-2.1-0.5c-5.2-1.4-10.2-3.2-14.6-6.2c-5.9-4.1-9.3-9.8-10.3-16.9c-0.6-4.2-0.3-8.4,0.3-12.6
		c1.1-6.8,3.7-13,8.6-18c3.4-3.5,7.4-6,12.2-6.9c3.9-0.7,7.7-0.4,11.5,0.6c0.3,0.1,0.7,0.1,1.2,0.2c-0.1-0.4-0.2-0.5-0.3-0.7
		c-5.5-10.6-9.8-21.7-13.4-33.2c-2.9-9.3-5.2-18.7-7.5-28.2c-2.7-11-8.2-20.3-16.9-27.6c-3-2.5-6.3-4.6-9.5-6.7
		c-1.3-0.8-2.6-1.7-3.9-2.6c0.4-2.5,1.2-3,3.4-1.9c2.2,1,4.3,2.1,6.5,3.1c0.3,0.2,0.7,0.3,1,0.4c0.1-0.1,0.2-0.2,0.1-0.2
		c-0.1-0.3-0.1-0.6-0.2-0.8c-6.7-18.2-15.8-35.1-28-50.3c-2-2.5-4.4-4.6-7-6.3c-4.6-2.9-9.3-5.6-14.2-7.9
		c-11.8-5.6-24.1-9.1-37-10.4c-6.6-0.7-13.2-0.9-19.8-0.4c-4.7,0.3-9.4,1.1-14,2.4c-0.3,0.1-0.6,0.2-1,0.4c0.6,0.9,1,1.6,1.6,2.4
		c6,8.1,12.9,15.5,20.3,22.3c11.9,11,24.9,20.4,38.6,29c0.8,0.5,1.7,0.8,2.7,1c3,0.6,6.1,1.2,9.2,1.7c6,0.9,11.7,2.3,17.2,4.9
		c0.4,0.2,0.9,0.4,1.2,0.6c0,2.2-0.7,2.7-2.7,2.3c-0.3-0.1-0.7-0.1-1-0.2c-10.6-2.8-21.4-4.6-32.3-5.2c-10.1-0.6-20.1-0.1-30.1,1.6
		c-15.2,2.5-29.5,7.7-43,15.2c-6.3,3.6-12.3,7.6-18,12.1c-1.5,1.2-3.1,2.1-5,2.3c-1.7,0.2-3.2-0.2-4.8-0.6
		c-10.7-2.8-21.6-4.5-32.6-5.3c-6.6-0.5-13.2-0.5-19.8-0.4c-9.5,0.2-18.9,1.1-28.3,2.7c-16.1,2.7-31.8,7.2-46.9,13.3
		c-0.7,0.3-1.4,0.6-2,1c-1.3,0.9-1.5,1.8-0.7,3.2c0.5,0.9,1.2,1.8,1.8,2.6c2.6,3.7,5.3,7.3,8.8,10.2c6.8,5.5,14.1,10,22.2,13.4
		c8.1,3.4,16.6,5.6,25.2,7.2c5.3,1,10.4,0.7,15.4-1.1c8.5-2.9,16.9-5.8,25.4-8.7c3-1,5.2-2.9,6.9-5.6c2.5-4,5.1-7.9,7.6-11.8
		c0.2-0.4,0.5-0.7,0.8-1.1c0.3,0.1,0.6,0.1,0.9,0.2c1.2,0.4,1.6,1.1,1.2,2.3c-0.1,0.3-0.3,0.6-0.4,0.9c-2.1,5.1-4.2,10.1-6.1,15.2
		c-1.8,4.8-3,9.7-3.4,14.8c-0.3,4,0,8,0.6,12c1.2,9.1,2.4,18.1,3.6,27.2c1.1,9,2.1,18,3.2,27c0.2,1.3,0.3,2.7,0.5,4.2
		c1.1-0.6,2.1-1.1,3-1.6c1.7-0.9,3.4-1.8,5.2-2.5c9.4-3.4,18-2.1,25.6,4.6c2.9,2.6,5.1,5.7,6.8,9.2c4.4,8.6,5,17.7,2.9,27
		c-0.9,4.1-2.9,7.7-5.9,10.7c-3,2.9-6.5,4.9-10.4,6.3c-0.5,0.2-1,0.4-1.5,0.6c0,0.9,0.6,0.9,1.1,1.2c11.5,5.9,23,11.8,34.5,17.7
		c1.3,0.7,2.6,1.4,3.9,2.1c-0.1,0.4-0.2,0.6-0.3,0.9c-0.1,0.2-0.3,0.5-0.4,0.7C412.8,493.2,398.1,486.2,384.8,475.7z M363.7,469.1
		c0.1,0.1,0.2,0.2,0.3,0.2c-0.4,1.5-0.7,3-1.1,4.4c-4.2,14.7-8.4,29.4-11.8,44.3c-2.1,9.5-3.9,19-5.3,28.7c-0.2,1.3-0.3,2.5-0.4,4
		c0.6,0,1.1,0,1.6,0c2.7,0,5.5-0.1,8.2-0.1c5,0,10,0.1,15,0.2c3.5,0.1,4.9-0.8,5.9-4.4c1.9-6.7,3.2-13.6,4-20.6
		c0.9-7.1,1.3-14.2,1.4-21.4c0.1-7.8-0.2-15.6-0.3-23.4c-0.1-5.2-1.8-9.7-5.6-13.3c-1.3-1.2-2.7-2.4-4-3.5
		c-5.6-5.1-9.5-11.2-11.6-18.5c-1.6-5.4-2-10.9-1.7-16.5c0.4-7.7,0.7-15.4,0.4-23.1c-0.2-4-0.5-7.9-1-11.9c-0.5-4-1.4-7.9-2.2-11.9
		c-0.4-1.9-0.8-3.7-1.2-5.7c-0.4,0.1-0.6,0.1-0.9,0.2c-1.5,0.4-2.9,0.9-4.4,1.3c-13.7,4-27.3,8-40.7,12.6c-21.3,7.4-42,16.2-61.8,27
		c-11.4,6.2-22.3,13.1-32.7,20.8c-0.9,0.7-1.8,1.4-2.6,2.3c-1.2,1.3-1.9,2.8-1.7,4.6c0.1,1.3,0.4,2.5,0.7,3.8c0.4,2,0.9,4,1.4,6
		c0.3,1.3,0.4,2.7,0.7,4c1.9,7.8,3.6,15.6,5.7,23.3c3.8,14.4,8.6,28.4,14.9,41.9c2.5,5.4,5.3,10.6,8.1,15.9c0.9,1.8,2.2,3.5,3.6,5.1
		c0.5-0.4,1-0.7,1.4-1c15.8-11.8,31.8-23.4,48.2-34.5c20.5-13.8,41.7-26.7,63.7-37.9C359.6,471.1,361.7,470.1,363.7,469.1z"/>
	<path class="st0" d="M384.8,475.7c13.4,10.5,28.1,17.5,44,22.2c0.1-0.3,0.3-0.5,0.4-0.7c0.1-0.3,0.2-0.5,0.3-0.9
		c-1.3-0.7-2.6-1.4-3.9-2.1c-11.5-5.9-23-11.8-34.5-17.7c-0.4-0.2-1.1-0.3-1.1-1.2c0.5-0.2,1-0.4,1.5-0.6c3.9-1.4,7.4-3.4,10.4-6.3
		c3-3,5-6.5,5.9-10.7c2.1-9.3,1.5-18.4-2.9-27c-1.8-3.4-3.9-6.6-6.8-9.2c-7.6-6.7-16.2-7.9-25.6-4.6c-1.8,0.6-3.5,1.6-5.2,2.5
		c-0.9,0.5-1.9,1-3,1.6c-0.2-1.5-0.4-2.8-0.5-4.2c-1.1-9-2.1-18-3.2-27c-1.1-9.1-2.3-18.2-3.6-27.2c-0.5-4-0.9-8-0.6-12
		c0.4-5.1,1.6-10,3.4-14.8c1.9-5.1,4.1-10.1,6.1-15.2c0.1-0.3,0.3-0.6,0.4-0.9c0.4-1.2,0-1.9-1.2-2.3c-0.3-0.1-0.6-0.1-0.9-0.2
		c-0.3,0.4-0.5,0.7-0.8,1.1c-2.6,3.9-5.1,7.9-7.6,11.8c-1.7,2.6-4,4.5-6.9,5.6c-8.5,2.9-16.9,5.8-25.4,8.7
		c-5.1,1.7-10.2,2.1-15.4,1.1c-8.6-1.6-17.1-3.8-25.2-7.2c-8.1-3.4-15.4-7.9-22.2-13.4c-3.5-2.9-6.2-6.5-8.8-10.2
		c-0.6-0.9-1.2-1.7-1.8-2.6c-0.8-1.4-0.6-2.3,0.7-3.2c0.6-0.4,1.3-0.7,2-1c15.2-6.1,30.8-10.6,46.9-13.3c9.4-1.6,18.8-2.5,28.3-2.7
		c6.6-0.1,13.2-0.1,19.8,0.4c11,0.8,21.9,2.5,32.6,5.3c1.6,0.4,3.2,0.8,4.8,0.6c1.9-0.2,3.5-1.2,5-2.3c5.7-4.5,11.7-8.5,18-12.1
		c13.4-7.6,27.7-12.7,43-15.2c10-1.7,20-2.1,30.1-1.6c10.9,0.6,21.7,2.4,32.3,5.2c0.3,0.1,0.7,0.2,1,0.2c2.1,0.5,2.7,0,2.7-2.3
		c-0.4-0.2-0.8-0.4-1.2-0.6c-5.5-2.6-11.2-4-17.2-4.9c-3.1-0.5-6.1-1.1-9.2-1.7c-0.9-0.2-1.9-0.5-2.7-1c-13.6-8.6-26.7-18-38.6-29
		c-7.4-6.9-14.3-14.2-20.3-22.3c-0.5-0.7-1-1.5-1.6-2.4c0.4-0.2,0.7-0.4,1-0.4c4.6-1.3,9.3-2.1,14-2.4c6.6-0.5,13.2-0.3,19.8,0.4
		c12.9,1.3,25.3,4.8,37,10.4c4.9,2.3,9.6,5,14.2,7.9c2.7,1.7,5,3.8,7,6.3c12.2,15.1,21.3,32,28,50.3c0.1,0.3,0.2,0.5,0.2,0.8
		c0,0-0.1,0.1-0.1,0.2c-0.3-0.1-0.7-0.2-1-0.4c-2.2-1-4.3-2.1-6.5-3.1c-2.2-1-3-0.6-3.4,1.9c1.3,0.8,2.6,1.7,3.9,2.6
		c3.3,2.1,6.6,4.2,9.5,6.7c8.7,7.3,14.3,16.6,16.9,27.6c2.3,9.4,4.6,18.9,7.5,28.2c3.6,11.4,7.9,22.5,13.4,33.2
		c0.1,0.2,0.1,0.3,0.3,0.7c-0.5-0.1-0.8-0.1-1.2-0.2c-3.8-0.9-7.7-1.3-11.5-0.6c-4.8,0.9-8.8,3.4-12.2,6.9c-4.9,5-7.5,11.2-8.6,18
		c-0.7,4.2-0.9,8.4-0.3,12.6c1,7.1,4.4,12.8,10.3,16.9c4.4,3.1,9.4,4.9,14.6,6.2c0.7,0.2,1.4,0.4,2.1,0.5c0.1,0,0.3,0.1,0.5,0.2
		c-11.9,14.8-23.7,29.5-35.6,44.4c0.4,0.5,0.8,1,1.2,1.5c1.5-0.8,2.7-1.7,3.8-2.9c6.9-7.2,13.6-14.5,19.8-22.2
		c8.1-10.1,15.4-20.7,21.2-32.3c2.9-5.7,5.1-11.7,6.2-18c0.6-3.1,0.9-6.3,0.7-9.4c-0.1-2.4,0.9-4.2,2.9-5.4
		c11.4-6.8,22.8-13.6,34.2-20.5c0.2-0.1,0.4-0.2,0.7-0.4c0.2,0.5,0.4,0.9,0.6,1.3c1,2.2,2.5,4,6,3.7c1.3-0.1,2.5-0.5,3.8-0.7
		c1.1-0.2,2.1-0.4,3.4-0.6c0.3,2,0.5,3.8,0.8,5.9c1.8,0.3,3.6,0.6,5.6,1c0.1,0.7,0.3,1.5,0.4,2.3c0.1,0.5,0.1,0.9,0.2,1.4
		c0.3,1.7,1.3,2.7,3.1,2.9c0.3,0,0.6,0.1,0.9,0.2c0.5,2,1.1,3.9,1.5,5.8c0.5,2.3,0.1,4.6-0.6,6.8c-1.9,6.5-3.8,13.1-5.8,19.6
		c-4.3,13.8-9.8,27.1-16.2,40.1c-8.3,16.7-18.3,32.4-30.3,46.7c-3.8,4.6-7.5,9.3-11.3,14c-0.3,0.4-0.6,0.7-0.9,1.1
		c-1.3-0.2-2-1.1-2.3-2.2c-0.3-1.1-0.5-2.2-0.7-3.4c-2.4-12-4.9-24-7.3-36.1c0-0.1,0-0.2-0.1-0.3c-0.5-2.3-1.1-2.6-3.5-1.6
		c1.9,22.4,6.7,44.2,14.8,65.4c-1.8,0.1-3.4,0.1-5,0.2c-4.9,0.2-9.6,1.1-14,3.2c-2.2,1-4.1,2.3-6,4c1.2-0.1,2.5-0.3,3.7-0.4
		c7.1-0.8,14.2-1.7,21.3-2.4c3.9-0.3,7.6,0.7,11.2,2.3c11.5,5.2,19.5,13.7,23.8,25.6c0.6,1.6,0.8,3.2,1.2,4.9c0.2,1-0.2,1.9-0.9,2.6
		c-1,1.1-2.1,2.1-3.3,3c-6.1,4.6-11.9,9.5-17.2,15c-4.3,4.4-8.3,9.2-11.9,14.2c-1.2,1.7-1.5,3.4-0.3,5.5c0.8-0.8,1.6-1.6,2.3-2.4
		c3.7-4.2,7.4-8.4,11.2-12.6c4.9-5.3,10.4-10.1,16.2-14.4c3.6-2.7,7.3-5.2,10.9-7.7c1.2-0.9,2.7-1.3,4.3-1.3
		c0.5,1.9,0.5,3.8-0.4,5.6c-1.5,3.3-2.9,6.6-4.4,9.9c-0.6,1.2-0.9,2.5-0.8,4.1c2-0.9,3.6-2,4.6-3.8c1.4-2.6,2.8-5.2,4.2-7.9
		c0.9-1.7,1.6-3.5,2.5-5.2c0.4-0.7,0.9-1.3,1.5-2.3c0.4,1.4,0.4,2.5,0.3,3.6c-0.2,3.8-1.5,7.3-3.4,10.6c-1.8,3.1-3.7,6.2-5.5,9.3
		c-0.7,1.2-1.3,2.4-2.1,3.7c1,0.6,1.9,1.2,3,1.9c3.8-5.8,7.4-11.6,11.3-17.6c0.2,0.8,0,1.4-0.1,1.9c-0.6,4.2-2,8.2-3.6,12.1
		c-5.3,12.9-12,24.9-20.7,35.9c-10.2,12.8-22.4,23.2-36.5,31.5c-2.8,1.6-5.9,1.9-9,2.1c-0.7,0-1.4,0-2.2,0c-1.3-0.1-2.1-0.8-2.5-2.1
		c-0.1-0.5-0.2-0.9-0.3-1.4c-0.9-4.9-0.5-9.8,0.7-14.7c0.2-1,0.5-2,0.7-2.9c0.4-1.7,0.1-2.2-1.6-2.8c-0.3-0.1-0.6-0.2-1-0.3
		c-0.2,0.4-0.3,0.7-0.4,1c-1,3.8-2,7.7-3,11.5c-0.1,0.3-0.1,0.6-0.2,0.8c-0.7,2.5-1.7,3.1-4.3,2.7c-3.9-0.6-7.9-1.2-11.8-1.7
		c-4.5-0.5-9.1-1-13.6-1.3c-6.6-0.5-13.2-0.7-19.8-0.5c-6.1,0.2-12.2,0.6-18.2,1c-7.9,0.6-15.8,1.8-23.6,3.3
		c-11.1,2.1-22,4.8-32.7,8.4c-6.4,2.1-12.7,4.6-19.1,6.8c-3.5,1.2-7.1,2.4-10.6,3.6c-0.4,0.1-0.8,0.2-1.3,0.2
		c-2.5,0.3-3.9-0.5-4.5-2.9c-0.9-3.2-2.5-6-4.2-8.8c-1.1-1.8-2.1-1.9-3.7-0.2c0.2,0.6,0.4,1.2,0.6,1.8c1.2,3.5,2.4,7,3.4,10.5
		c0.4,1.4,0.5,2.8,0.4,4.3c-0.1,2.7-1.6,4.5-4.3,5c-2.3,0.5-4.6,0.2-6.9-0.1c-5.1-0.9-9.9-2.8-14.3-5.4c-12-7.1-23.3-15.1-33.5-24.8
		c-9.3-8.9-17.2-18.8-23.4-30.1c-0.8-1.5-1.7-3.1-1.9-4.9c2,2.5,4.1,5.1,6.2,7.7c0.9-0.5,1.7-1,2.7-1.6c-0.4-0.6-0.7-1.2-1.1-1.7
		c-2.2-3.3-4.4-6.6-6.5-10c-0.8-1.4-1.5-2.9-2-4.4c-0.6-1.8-0.5-3.7,0.4-5.7c1.3,1.4,2.2,2.9,3.3,4.3c1.1,1.4,2.1,2.9,3.2,4.3
		c1.1,1.4,2.1,2.9,3.2,4.3c1.1,1.4,2.1,2.8,3.3,4.4c0.9-0.6,1.8-1.2,2.8-1.8c-0.3-0.5-0.6-1-0.9-1.4c-3-4.7-6-9.5-9-14.2
		c-0.8-1.3-1.1-2.7-0.8-4.3c0.2-1.1,0.5-1.3,1.6-1.4c1-0.1,2,0.1,2.9,0.5c7.2,3.5,14.3,7.2,20.8,11.9c5.5,3.9,11.1,7.7,16.6,11.6
		c1.8,1.3,3.9,1.8,6.1,2.2c-1.4-1.5-2.8-3.1-4.4-4.5c-7.1-6.6-14.7-12.4-23-17.5c-0.6-0.4-1.1-0.7-1.7-1.1c-1.9-1.5-2.5-3.4-1.8-5.8
		c0.9-2.8,1.8-5.5,2.8-8.3c3.7-10.6,8.4-20.8,13.1-31c3.6-7.7,7.1-15.5,9.8-23.6c2.9-8.6,4.9-17.3,6-26.3c0.7-5.5,1-11.1,1.2-16.6
		c0.3-9.1-0.2-18.2-1-27.3c-0.1-1.2-0.2-2.4-0.3-3.6C384.7,476.8,384.8,476.4,384.8,475.7z M436.3,415.4c-1.2,1.9-0.9,3.2,0.9,4.1
		c0.8,0.4,1.6,0.5,2.5,0.6c1.4,0.2,2.7,0.9,3.6,1.9c0.6,0.7,1.1,1.4,1.4,2.1c2.6,5.1,5.1,10.3,7.7,15.4
		c6.6,13.2,15.7,24.5,26.6,34.4c1.7,1.6,3.7,3,5.9,3.8c2.7,1.1,5.4,1,8.1-0.4c1.5-0.8,2.7-1.8,3.8-3c2.3-2.4,3.8-5.4,5.1-8.4
		c3-6.6,5.2-13.5,6.2-20.7c0.9-6.5,0.9-13,1-19.5c0.1-3.6-0.1-7.3-0.1-10.9c0-1.9,0.1-3.8,0.2-5.7c0.1-2.2,1-3.8,3.1-4.8
		c0.3-0.1,0.5-0.2,0.8-0.4c2.1-1.2,2.8-3.2,3.3-5.6c-1.1,0.6-2.1,1.1-3,1.6c-6.6,3.7-13.6,4.4-20.8,2.1c-2.4-0.8-4.6-1.8-7-2.7
		c-4.7-1.9-9.6-2.7-14.6-1.4c-3.9,1-7.1,3-10,5.7c-2.3,2.2-4.5,4.5-6.9,6.7c-1.7,1.6-3.5,3.1-5.5,4.4c-2.4,1.6-5.2,2.2-8.1,1.6
		C439.1,416.2,437.8,415.7,436.3,415.4z M398.8,576.2c-1.5,2.4-1.5,3.2,0,5.3c0.1,0.1,0.2,0.2,0.3,0.3c2.3,2.6,4.5,5.4,6.9,7.9
		c6.5,6.8,13.9,12.5,21.6,17.8c6.8,4.6,14.1,8.6,21.3,12.6c4.7,2.6,9.3,5.1,14,7.6c2.9,1.6,6.1,2.6,9.4,2.7c2.7,0.1,5.3,0.5,8,1
		c1.2,0.2,2.5,0.2,3.7,0.1c2-0.2,3.1-1.6,3.9-3.2c0.8-1.7,1.8-2.1,3.6-1.7c0.7,0.1,1.4,0.3,2.1,0.3c2.8,0.3,5.1-1.3,5.7-4.1
		c0-0.2,0.1-0.4,0.1-0.6c0.2-1.2,1-1.9,2.2-2.1c0.2,0,0.5,0,0.7-0.1c2.2-0.6,3.8-1.9,4.1-4.3c0.3-2.2,0.4-4.4,0.6-6.6
		c0.1-0.8,0.1-1.6,0.2-2.4c0.4-2.6,0.5-5.2-0.2-7.7c-0.6-2.7-1.4-5.3-2.1-7.9c-4.4-15.9-11.4-30.7-21-44.2
		c-4.8-6.7-10.1-13-15.9-18.9c-1.9-1.9-3.8-3.8-5.8-5.6c-1.8-1.6-3.5-1.1-4.3,1.5c1.4,1.3,2.9,2.7,4.4,4.2
		c4.5,4.4,8.5,9.1,12.1,14.2c4.2,6,8.2,12.1,11.9,18.5c2.4,4.2,4.8,8.4,6.9,12.8c3.4,6.9,5.5,14.3,7.2,21.8c0.4,1.9,0.7,3.8,0.8,5.7
		c0.1,3.7-0.1,7.4-0.2,11.1c0,0.6-0.1,1.2-0.1,2c-1.6-0.7-3-1.3-4.5-2c-0.7,3.3-1.4,6.5-2,9.7c-3.5-0.2-6.7-0.4-10.1-0.5
		c-0.4,2-0.8,4-1.2,6c-2.3-0.1-4.5-0.3-6.7-0.3c-3.9,0-7.4-1-10.8-2.9c-3.5-2-7.3-3.6-10.9-5.5c-11.9-6.2-23-13.7-33.6-21.9
		c-5-3.9-9.8-7.9-14.1-12.5c-1.9-2-3.8-4-5.7-5.9C400.6,577.7,399.7,577,398.8,576.2z M381.2,385.3c0.1,1,0.2,2.7,0.5,4.3
		c1.2,6,4.3,10.8,9.8,13.8c4.2,2.3,8.7,2.7,13.3,1.8c8.3-1.7,14.1-6.5,16.1-14.9c1.6-6.3,0.4-12.4-3.1-17.9c-0.9-1.4-2-2.7-3.4-3.7
		c-6.9-5.2-14.5-5.7-22.1-2.2C384.9,370,381.4,376.4,381.2,385.3z M535.3,335.2c-0.8,0.1-2.2,0.2-3.5,0.4
		c-6.8,1.2-11.3,5.6-12.7,12.1c-1,4.6-0.7,9.2,0.6,13.6c1.6,5.5,5,9.4,10.4,11.6c3.1,1.2,6.4,1.8,9.7,1.7c3.2-0.1,6.3-0.6,9.2-2.1
		c6.5-3.5,10-10.6,9-18.3C556.3,343.3,546.9,335.1,535.3,335.2z M463.9,376.6c1.3,1.2,2.5,2.4,3.8,3.4c1,0.8,2.2,0.9,3.4,0.4
		c1.8-0.8,3.3-2.1,5.1-3.2c-0.6-1.1-1-2.2-1.7-2.8c-1.9-1.4-4.1-1.8-6.4-0.6C466.7,374.6,465.4,375.6,463.9,376.6z"/>
	<path class="st0" d="M363.7,469.1c-2.1,1-4.1,2-6.2,3c-22.1,11.2-43.2,24.1-63.7,37.9c-16.4,11-32.4,22.6-48.2,34.5
		c-0.4,0.3-0.8,0.6-1.4,1c-1.4-1.6-2.6-3.2-3.6-5.1c-2.7-5.3-5.6-10.5-8.1-15.9c-6.3-13.5-11-27.6-14.9-41.9
		c-2.1-7.7-3.8-15.5-5.7-23.3c-0.3-1.3-0.4-2.6-0.7-4c-0.4-2-0.9-4-1.4-6c-0.3-1.3-0.6-2.5-0.7-3.8c-0.2-1.8,0.5-3.3,1.7-4.6
		c0.8-0.8,1.7-1.6,2.6-2.3c10.4-7.7,21.4-14.6,32.7-20.8c19.8-10.9,40.5-19.6,61.8-27c13.4-4.7,27.1-8.7,40.7-12.6
		c1.5-0.4,2.9-0.9,4.4-1.3c0.3-0.1,0.5-0.1,0.9-0.2c0.4,1.9,0.8,3.8,1.2,5.7c0.8,4,1.6,7.9,2.2,11.9c0.5,3.9,0.8,7.9,1,11.9
		c0.4,7.7,0.1,15.4-0.4,23.1c-0.3,5.6,0.1,11.1,1.7,16.5c2.1,7.3,6,13.4,11.6,18.5c1.3,1.2,2.7,2.3,4,3.5c3.7,3.6,5.5,8.1,5.6,13.3
		c0.1,7.8,0.4,15.6,0.3,23.4c-0.1,7.1-0.5,14.3-1.4,21.4c-0.9,7-2.1,13.8-4,20.6c-1,3.6-2.4,4.5-5.9,4.4c-5-0.1-10-0.2-15-0.2
		c-2.7,0-5.5,0-8.2,0.1c-0.5,0-0.9,0-1.6,0c0.2-1.5,0.3-2.7,0.4-4c1.3-9.6,3.1-19.2,5.3-28.7c3.4-14.9,7.6-29.6,11.8-44.3
		c0.4-1.5,0.8-3,1.1-4.4C363.9,469.3,363.8,469.2,363.7,469.1z"/>
	<path d="M436.3,415.4c1.4,0.4,2.8,0.8,4.2,1.1c2.9,0.6,5.7,0.1,8.1-1.6c1.9-1.3,3.7-2.8,5.5-4.4c2.4-2.2,4.6-4.5,6.9-6.7
		c2.9-2.7,6.1-4.8,10-5.7c5-1.3,9.9-0.5,14.6,1.4c2.3,0.9,4.6,2,7,2.7c7.2,2.3,14.2,1.6,20.8-2.1c0.9-0.5,1.8-1,3-1.6
		c-0.5,2.4-1.2,4.4-3.3,5.6c-0.2,0.1-0.5,0.3-0.8,0.4c-2.1,0.9-3,2.5-3.1,4.8c-0.1,1.9-0.2,3.8-0.2,5.7c0,3.6,0.1,7.3,0.1,10.9
		c-0.1,6.5-0.1,13-1,19.5c-1,7.2-3.2,14.1-6.2,20.7c-1.4,3-2.8,6-5.1,8.4c-1.1,1.2-2.4,2.2-3.8,3c-2.6,1.4-5.3,1.4-8.1,0.4
		c-2.2-0.9-4.1-2.2-5.9-3.8c-10.9-9.9-19.9-21.2-26.6-34.4c-2.6-5.1-5.1-10.3-7.7-15.4c-0.4-0.8-0.9-1.5-1.4-2.1
		c-0.9-1.1-2.1-1.7-3.6-1.9c-0.8-0.1-1.7-0.3-2.5-0.6C435.4,418.6,435.1,417.2,436.3,415.4z M485.6,429.9c-7.7,0-13.8,1.5-19.2,5.5
		c-2.3,1.7-4.2,3.6-5.8,5.9c-1,1.5-1.2,3.1-0.2,4.7c3.3,4.8,6.4,9.7,9.7,14.4c3.4,4.8,7.7,8.8,12.8,11.8c1.5,0.9,3.2,1.6,4.8,2.1
		c2.2,0.7,4.1-0.1,5.5-1.8c0.7-0.9,1.4-1.9,1.9-2.9c3.8-7.3,6.7-14.8,8.6-22.8c0.7-3.1,1.4-6.3,1.3-9.5c-0.1-3-1.5-5-4.3-6
		c-1.1-0.4-2.3-0.7-3.5-0.8C493.2,430,488.9,429.7,485.6,429.9z"/>
	<path d="M398.8,576.2c0.9,0.8,1.7,1.5,2.5,2.3c1.9,1.9,3.8,3.9,5.7,5.9c4.4,4.6,9.2,8.6,14.1,12.5c10.6,8.2,21.7,15.7,33.6,21.9
		c3.6,1.9,7.4,3.5,10.9,5.5c3.4,1.9,7,2.8,10.8,2.9c2.2,0,4.4,0.2,6.7,0.3c0.4-2,0.8-4,1.2-6c3.4,0.2,6.7,0.4,10.1,0.5
		c0.7-3.2,1.3-6.4,2-9.7c1.5,0.7,2.9,1.3,4.5,2c0-0.8,0.1-1.4,0.1-2c0.1-3.7,0.2-7.4,0.2-11.1c0-1.9-0.4-3.8-0.8-5.7
		c-1.7-7.5-3.9-14.9-7.2-21.8c-2.1-4.3-4.5-8.6-6.9-12.8c-3.7-6.4-7.7-12.5-11.9-18.5c-3.6-5.1-7.6-9.9-12.1-14.2
		c-1.5-1.4-3-2.8-4.4-4.2c0.8-2.6,2.5-3.1,4.3-1.5c2,1.8,3.9,3.7,5.8,5.6c5.8,5.9,11.1,12.2,15.9,18.9c9.6,13.5,16.6,28.2,21,44.2
		c0.7,2.6,1.5,5.3,2.1,7.9c0.6,2.5,0.6,5.1,0.2,7.7c-0.1,0.8-0.2,1.6-0.2,2.4c-0.2,2.2-0.3,4.4-0.6,6.6c-0.3,2.4-1.9,3.7-4.1,4.3
		c-0.2,0.1-0.5,0.1-0.7,0.1c-1.2,0.2-2,0.9-2.2,2.1c0,0.2-0.1,0.4-0.1,0.6c-0.6,2.8-2.9,4.4-5.7,4.1c-0.7-0.1-1.4-0.2-2.1-0.3
		c-1.8-0.4-2.8,0.1-3.6,1.7c-0.8,1.7-2,3-3.9,3.2c-1.2,0.1-2.5,0.1-3.7-0.1c-2.6-0.5-5.3-0.9-8-1c-3.4-0.1-6.5-1.2-9.4-2.7
		c-4.7-2.5-9.4-5.1-14-7.6c-7.2-4-14.5-7.9-21.3-12.6c-7.8-5.3-15.1-11-21.6-17.8c-2.4-2.5-4.6-5.3-6.9-7.9
		c-0.1-0.1-0.2-0.2-0.3-0.3C397.3,579.4,397.3,578.6,398.8,576.2z"/>
	<path d="M381.2,385.3c0.1-8.9,3.7-15.2,11.2-18.8c7.6-3.6,15.2-3,22.1,2.2c1.3,1,2.5,2.3,3.4,3.7c3.5,5.5,4.6,11.6,3.1,17.9
		c-2.1,8.4-7.8,13.2-16.1,14.9c-4.6,0.9-9.1,0.5-13.3-1.8c-5.5-3-8.6-7.8-9.8-13.8C381.4,388,381.3,386.3,381.2,385.3z M405.5,367.8
		c-4.6,0-7.9,3.2-7.9,7.8c0,4.5,2.9,7.5,7.3,7.5c4.7,0,8.2-3.1,8.2-7.4C413.1,370.9,409,367.5,405.5,367.8z"/>
	<path d="M535.3,335.2c11.6-0.1,21,8.1,22.5,19c1.1,7.7-2.4,14.8-9,18.3c-2.9,1.5-6,2-9.2,2.1c-3.3,0.1-6.6-0.5-9.7-1.7
		c-5.4-2.1-8.8-6.1-10.4-11.6c-1.3-4.5-1.6-9-0.6-13.6c1.4-6.5,6-10.9,12.7-12.1C533.1,335.3,534.5,335.3,535.3,335.2z M530.3,341.6
		c-0.7,0.1-1.4,0.1-2.1,0.3c-3.8,0.8-6.2,4-6,8c0.2,3.5,2.8,6.2,6.6,6.6c4.4,0.5,7.7-2,8.2-6.3c0.1-1.1,0-2.3-0.2-3.4
		C536.1,343.5,533.7,341.7,530.3,341.6z"/>
	<path d="M463.9,376.6c1.5-1,2.8-2,4.2-2.8c2.2-1.2,4.4-0.7,6.4,0.6c0.8,0.6,1.1,1.7,1.7,2.8c-1.8,1.1-3.3,2.4-5.1,3.2
		c-1.2,0.5-2.4,0.4-3.4-0.4C466.4,379,465.2,377.8,463.9,376.6z"/>
	<path class="st0" d="M485.6,429.9c3.2-0.2,7.5,0.1,11.8,0.6c1.2,0.1,2.4,0.4,3.5,0.8c2.8,1,4.1,3,4.3,6c0.1,3.3-0.5,6.4-1.3,9.5
		c-1.9,8-4.8,15.5-8.6,22.8c-0.5,1-1.1,2-1.9,2.9c-1.4,1.7-3.4,2.5-5.5,1.8c-1.7-0.5-3.3-1.2-4.8-2.1c-5.1-3-9.4-7-12.8-11.8
		c-3.3-4.7-6.5-9.6-9.7-14.4c-1.1-1.6-0.8-3.2,0.2-4.7c1.5-2.4,3.5-4.3,5.8-5.9C471.8,431.4,478,429.9,485.6,429.9z"/>
	<path class="st0" d="M405.5,367.8c3.5-0.3,7.6,3.2,7.6,7.9c0,4.3-3.5,7.4-8.2,7.4c-4.4,0-7.3-3-7.3-7.5
		C397.6,371,400.8,367.7,405.5,367.8z"/>
	<path class="st0" d="M530.3,341.6c3.4,0.1,5.8,1.9,6.5,5.2c0.2,1.1,0.4,2.3,0.2,3.4c-0.5,4.3-3.9,6.8-8.2,6.3
		c-3.7-0.4-6.4-3.1-6.6-6.6c-0.2-4,2.2-7.2,6-8C528.9,341.7,529.6,341.7,530.3,341.6z"/>
</g>
</svg>
